<?xml version="1.0" encoding="UTF-8"?>
<svg width="47px" height="50px" viewBox="0 0 47 50" version="1.1" xmlns="http://www.w3.org/2000/svg" xmlns:xlink="http://www.w3.org/1999/xlink">
    <title>Rectangle Copy 7</title>
    <g id="Page-1" stroke="none" stroke-width="1" fill="none" fill-rule="evenodd">
        <g id="Desktop-HD" transform="translate(-120.000000, -30.000000)" fill="#000000">
            <path d="M159,75 L159,80 L124,80 L124,75 L159,75 Z M164,66 L164,71 L129,71 L129,66 L164,66 Z M167,57 L167,62 L132,62 L132,57 L167,57 Z M159,48 L159,53 L124,53 L124,48 L159,48 Z M155,39 L155,44 L120,44 L120,39 L155,39 Z M159,30 L159,35 L124,35 L124,30 L159,30 Z" id="Rectangle-Copy-7"></path>
        </g>
    </g>
</svg>